<svg width="24" height="24" viewBox="0 0 24 24" fill="none" xmlns="http://www.w3.org/2000/svg">
  <path d="M22.56 12.25C22.56 11.47 22.49 10.72 22.36 10H12V14.26H17.92C17.66 15.63 16.88 16.79 15.72 17.56V20.34H19.28C21.36 18.42 22.56 15.6 22.56 12.25Z" fill="#4285F4"/>
  <path d="M12 23C14.97 23 17.46 22.02 19.28 20.34L15.72 17.56C14.77 18.2 13.52 18.58 12 18.58C9.12 18.58 6.72 16.67 5.82 14.1H2.14V16.94C3.96 20.5 7.7 23 12 23Z" fill="#34A853"/>
  <path d="M5.82 14.094C5.6 13.494 5.48 12.854 5.48 12.004C5.48 11.154 5.6 10.514 5.82 9.914V7.074H2.14C1.42 8.564 1 10.284 1 12.004C1 13.724 1.42 15.444 2.14 16.934L5.82 14.094Z" fill="#FBBC05"/>
  <path d="M12 5.42C13.54 5.42 14.92 5.96 16.02 7.02L19.17 3.87C17.46 2.26 14.97 1.28 12 1.28C7.7 1.28 3.96 3.78 2.14 7.34L5.82 10.18C6.72 7.61 9.12 5.42 12 5.42Z" fill="#EA4335"/>
</svg>
